<mxfile host="app.diagrams.net" modified="2024-05-29T02:07:04.690Z" agent="Mozilla/5.0 (X11; Linux x86_64) AppleWebKit/537.36 (KHTML, like Gecko) Chrome/124.0.0.0 Safari/537.36" etag="yHHKd4x_7X3Kd0FiA5Eh" version="24.4.9" type="github">
  <diagram name="Página-1" id="1Ck4k_goWXGXnilSxKg0">
    <mxGraphModel dx="1760" dy="966" grid="1" gridSize="10" guides="1" tooltips="1" connect="1" arrows="1" fold="1" page="1" pageScale="1" pageWidth="827" pageHeight="1169" math="0" shadow="0">
      <root>
        <mxCell id="0" />
        <mxCell id="1" parent="0" />
        <mxCell id="65DaI0JShAkbXW3liX-f-14" value="" style="rounded=1;whiteSpace=wrap;html=1;fillColor=none;arcSize=5;" vertex="1" parent="1">
          <mxGeometry x="835" y="173" width="270" height="310" as="geometry" />
        </mxCell>
        <mxCell id="65DaI0JShAkbXW3liX-f-2" value="Membro" style="shape=umlActor;verticalLabelPosition=bottom;verticalAlign=top;html=1;outlineConnect=0;" vertex="1" parent="1">
          <mxGeometry x="984" y="413" width="20" height="40" as="geometry" />
        </mxCell>
        <mxCell id="65DaI0JShAkbXW3liX-f-3" value="Membro" style="shape=umlActor;verticalLabelPosition=bottom;verticalAlign=top;html=1;outlineConnect=0;" vertex="1" parent="1">
          <mxGeometry x="934" y="413" width="20" height="40" as="geometry" />
        </mxCell>
        <mxCell id="65DaI0JShAkbXW3liX-f-4" value="Membro" style="shape=umlActor;verticalLabelPosition=bottom;verticalAlign=top;html=1;outlineConnect=0;" vertex="1" parent="1">
          <mxGeometry x="884" y="413" width="20" height="40" as="geometry" />
        </mxCell>
        <mxCell id="65DaI0JShAkbXW3liX-f-5" value="Secretario" style="shape=umlActor;verticalLabelPosition=bottom;verticalAlign=top;html=1;outlineConnect=0;" vertex="1" parent="1">
          <mxGeometry x="915" y="333" width="20" height="40" as="geometry" />
        </mxCell>
        <mxCell id="65DaI0JShAkbXW3liX-f-6" value="Tesoureiro" style="shape=umlActor;verticalLabelPosition=bottom;verticalAlign=top;html=1;outlineConnect=0;" vertex="1" parent="1">
          <mxGeometry x="1005" y="253" width="20" height="40" as="geometry" />
        </mxCell>
        <mxCell id="65DaI0JShAkbXW3liX-f-7" value="RSG&lt;div&gt;(Representante de&amp;nbsp;&lt;/div&gt;&lt;div&gt;serviço de grupo)&lt;/div&gt;" style="shape=umlActor;verticalLabelPosition=bottom;verticalAlign=top;html=1;outlineConnect=0;" vertex="1" parent="1">
          <mxGeometry x="925" y="213" width="20" height="40" as="geometry" />
        </mxCell>
        <mxCell id="65DaI0JShAkbXW3liX-f-9" value="Coordenador" style="shape=umlActor;verticalLabelPosition=bottom;verticalAlign=top;html=1;outlineConnect=0;" vertex="1" parent="1">
          <mxGeometry x="995" y="333" width="20" height="40" as="geometry" />
        </mxCell>
        <mxCell id="65DaI0JShAkbXW3liX-f-10" value="Membro" style="shape=umlActor;verticalLabelPosition=bottom;verticalAlign=top;html=1;outlineConnect=0;" vertex="1" parent="1">
          <mxGeometry x="1044" y="413" width="20" height="40" as="geometry" />
        </mxCell>
        <mxCell id="65DaI0JShAkbXW3liX-f-15" value="Nome do Grupo" style="text;html=1;align=center;verticalAlign=middle;whiteSpace=wrap;rounded=0;fontStyle=1" vertex="1" parent="1">
          <mxGeometry x="904" y="173" width="120" height="30" as="geometry" />
        </mxCell>
        <mxCell id="65DaI0JShAkbXW3liX-f-26" value="&lt;h1 style=&quot;margin-top: 0px;&quot;&gt;Grupo de Ajuda&lt;/h1&gt;&lt;p&gt;Os grupos possui reuniões diariamentes, e preeenchem ata de reuniões, organizam o locais de reuniões, fazem contribuições para manter as salas abertas, compra de literaturas, mantimentos e ajudar a area.&lt;/p&gt;" style="text;html=1;whiteSpace=wrap;overflow=hidden;rounded=0;" vertex="1" parent="1">
          <mxGeometry x="20" y="10" width="260" height="130" as="geometry" />
        </mxCell>
        <mxCell id="65DaI0JShAkbXW3liX-f-27" value="&lt;h1 style=&quot;margin-top: 0px;&quot;&gt;Objetivo do Projeto&lt;/h1&gt;&lt;div&gt;Criar um sistema&amp;nbsp;para automatizar as informações como preenchiemntos de atas de reuniões, controlo do financeiro e geração de relatorios.&lt;/div&gt;" style="text;html=1;whiteSpace=wrap;overflow=hidden;rounded=0;" vertex="1" parent="1">
          <mxGeometry x="20" y="160" width="260" height="130" as="geometry" />
        </mxCell>
        <mxCell id="65DaI0JShAkbXW3liX-f-28" value="&lt;h1 style=&quot;margin-top: 0px;&quot;&gt;Usuarios&lt;/h1&gt;&lt;div&gt;Todos os membros poderam ter acesso as infromações. Mas serão restritos os acessos, dependendo do seu acesso.&lt;/div&gt;" style="text;html=1;whiteSpace=wrap;overflow=hidden;rounded=0;" vertex="1" parent="1">
          <mxGeometry x="850" y="20" width="260" height="130" as="geometry" />
        </mxCell>
        <mxCell id="65DaI0JShAkbXW3liX-f-29" value="Membro" style="text;html=1;align=center;verticalAlign=middle;whiteSpace=wrap;rounded=0;fontStyle=1" vertex="1" parent="1">
          <mxGeometry x="1120" y="20" width="60" height="30" as="geometry" />
        </mxCell>
        <mxCell id="65DaI0JShAkbXW3liX-f-30" value="Um membro aquele que tem acessos a todas informações do sistema com permissão de leitura. Acesso anonimo." style="text;html=1;align=left;verticalAlign=middle;whiteSpace=wrap;rounded=0;fontStyle=0" vertex="1" parent="1">
          <mxGeometry x="1131" y="46" width="170" height="60" as="geometry" />
        </mxCell>
        <mxCell id="65DaI0JShAkbXW3liX-f-31" value="Coordenador" style="text;html=1;align=center;verticalAlign=middle;whiteSpace=wrap;rounded=0;fontStyle=1" vertex="1" parent="1">
          <mxGeometry x="1125" y="110" width="60" height="30" as="geometry" />
        </mxCell>
        <mxCell id="65DaI0JShAkbXW3liX-f-32" value="Aquele que ajuda a realizar as reuniões. Ele tem os mesmos atributos dos membros" style="text;html=1;align=left;verticalAlign=middle;whiteSpace=wrap;rounded=0;fontStyle=0" vertex="1" parent="1">
          <mxGeometry x="1135" y="132" width="170" height="50" as="geometry" />
        </mxCell>
        <mxCell id="65DaI0JShAkbXW3liX-f-33" value="Secretario" style="text;html=1;align=center;verticalAlign=middle;whiteSpace=wrap;rounded=0;fontStyle=1" vertex="1" parent="1">
          <mxGeometry x="1120" y="183" width="60" height="30" as="geometry" />
        </mxCell>
        <mxCell id="65DaI0JShAkbXW3liX-f-34" value="Esse já um encargo de confiança, que foi eleito pelos membros.&lt;div&gt;Tem as responsabilidade de estar preenchendo as atas das Reuniões&lt;/div&gt;" style="text;html=1;align=left;verticalAlign=middle;whiteSpace=wrap;rounded=0;fontStyle=0" vertex="1" parent="1">
          <mxGeometry x="1135" y="209" width="235" height="60" as="geometry" />
        </mxCell>
        <mxCell id="65DaI0JShAkbXW3liX-f-36" value="Tesoureiro" style="text;html=1;align=center;verticalAlign=middle;whiteSpace=wrap;rounded=0;fontStyle=1" vertex="1" parent="1">
          <mxGeometry x="1120" y="275" width="60" height="30" as="geometry" />
        </mxCell>
        <mxCell id="65DaI0JShAkbXW3liX-f-37" value="Esse também é um encargo de confiança, que foi eleito.&lt;div&gt;Tem a responsabilidade de fazer administração do grupo, do dinheiro que entra e que sai, fazer relatorio e apresentar a saude do grupo.&lt;/div&gt;" style="text;html=1;align=left;verticalAlign=middle;whiteSpace=wrap;rounded=0;fontStyle=0" vertex="1" parent="1">
          <mxGeometry x="1135" y="301" width="235" height="84" as="geometry" />
        </mxCell>
        <mxCell id="65DaI0JShAkbXW3liX-f-38" value="RSG" style="text;html=1;align=center;verticalAlign=middle;whiteSpace=wrap;rounded=0;fontStyle=1" vertex="1" parent="1">
          <mxGeometry x="1100" y="385" width="60" height="30" as="geometry" />
        </mxCell>
        <mxCell id="65DaI0JShAkbXW3liX-f-39" value="Esse é um membro eleito que tem a responsabilidade de ajudar a fazer o grupo funcionar, como fazer as reuniões de serviço, conferir as atas de reuinões e fazer a ata para levar para a reunião de area" style="text;html=1;align=left;verticalAlign=middle;whiteSpace=wrap;rounded=0;fontStyle=0" vertex="1" parent="1">
          <mxGeometry x="1125" y="411" width="235" height="84" as="geometry" />
        </mxCell>
      </root>
    </mxGraphModel>
  </diagram>
</mxfile>
